<?xml version="1.0" encoding="utf-8"?>
<!-- Generator: Adobe Illustrator 16.0.0, SVG Export Plug-In . SVG Version: 6.00 Build 0)  -->
<!DOCTYPE svg PUBLIC "-//W3C//DTD SVG 1.1//EN" "http://www.w3.org/Graphics/SVG/1.1/DTD/svg11.dtd">
<svg version="1.1" xmlns="http://www.w3.org/2000/svg" xmlns:xlink="http://www.w3.org/1999/xlink" x="0px" y="0px" width="466px"
	 height="415px" viewBox="0 0 466 415" enable-background="new 0 0 466 415" xml:space="preserve">
<g id="Capa_3">
</g>
<g id="Capa_1" display="none">
	<g display="inline">
		<path fill-rule="evenodd" clip-rule="evenodd" fill="#DE6EFB" d="M435.331,243.954c0,55.302-22.963,105.246-59.888,140.846
			c-104.417,0-194.6-0.228-272.582-0.228C66.076,348.986,43.21,299.136,43.21,243.954c0-108.12,87.779-195.769,196.06-195.769
			C347.553,48.185,435.331,135.834,435.331,243.954z"/>
		<path fill-rule="evenodd" clip-rule="evenodd" d="M326.509,129.52c-2.712,0.552-6.208,2.985-7.644,5.575
			c-2.306,4.165-4.453,8.419-6.63,12.654c-0.216,0.42-0.271,0.977-0.24,1.459c0.127,1.99,0.216,3.99,0.5,5.96
			c0.59,4.089,1.377,8.15,1.936,12.243c1.177,8.616,2.325,17.236,3.354,25.871c0.539,4.527,0.969,9.081,1.146,13.634
			c0.278,7.126,0.349,14.261,0.416,21.394c0.066,7.133,0.036,14.268,0.01,21.4c-0.005,1.206,0.185,2.049,1.343,2.838
			c1.12,0.762,2.038,2.014,2.686,3.24c2.359,4.477,4.565,9.034,6.843,13.556c0.168,0.333,0.437,0.614,0.824,1.147
			c0.442-0.9,0.865-1.494,1.034-2.153c0.657-2.546,1.431-5.084,1.802-7.677c0.897-6.271,3.462-11.385,9.12-14.686
			c2.399-1.399,4.664-3.027,7.002-4.535c2.515-1.623,5.042-3.225,7.563-4.837c0.576-0.368,1.146-0.746,1.694-1.104
			C348.299,200.016,337.4,164.758,326.509,129.52z M334.983,335.624c0.203-0.207,0.332-0.293,0.394-0.412
			c0.129-0.252,0.231-0.52,0.33-0.787c1.533-4.125,3.57-7.938,6.863-10.957c0.714-0.654,0.727-1.369,0.698-2.296
			c-0.101-3.408-0.577-6.938,0.112-10.207c1.143-5.419,3.088-10.666,4.669-15.994c0.3-1.01,0.841-2.131,0.644-3.069
			c-0.455-2.162,0.073-4.026,1.281-5.662c1.374-1.859,1.275-3.658,0.409-5.605c-0.853-1.917-0.873-3.912-0.225-5.857
			c0.653-1.957,1.531-3.84,2.247-5.777c0.757-2.048,1.438-4.124,2.201-6.33c-1.888-0.183-3.24,0.24-4.382,1.563
			c-2.685,3.115-4.735,6.504-6.021,10.482c-1.311,4.057-2.226,8.491-6.332,11.014c-0.273,0.17-0.404,0.574-0.598,0.872
			c-0.748,1.144-1.877,1.642-3.141,1.382c-2.505-0.514-4.625-1.739-6.028-3.972c-1.119-1.78-0.986-3.819-1.19-5.799
			c-0.074-0.728-0.29-1.587-0.756-2.101c-1.477-1.63-2.519-3.501-3.125-5.555c-1.026-3.479-1.856-7.016-2.764-10.529
			c-0.216-0.838-0.412-1.68-0.616-2.521c-0.146,0.025-0.292,0.051-0.438,0.076c-0.066,0.464-0.172,0.926-0.191,1.394
			c-0.195,4.56-0.344,9.121-0.571,13.68c-0.228,4.558-0.426,9.122-0.833,13.665c-0.331,3.69-1.013,7.346-1.431,11.029
			c-0.794,7.01-1.438,14.038-2.289,21.041c-0.525,4.332-1.499,8.572-3.864,12.355c-0.368,0.59-0.615,1.254-1.066,2.188
			C317.797,333.846,326.344,334.729,334.983,335.624z M104.226,341.095c8.958-1.41,17.605-2.77,26.251-4.139
			c0.417-0.066,0.823-0.215,1.23-0.337c0.049-0.015,0.094-0.09,0.115-0.146c0.023-0.065,0.017-0.142,0.046-0.45
			c-1.711-2.573-3.459-5.35-5.356-8.021c-3.805-5.361-7.29-10.869-10.027-16.895c-2.011-4.428-3.327-8.976-3.823-13.729
			c-0.917-8.794-1.565-17.616-2.334-26.426c-0.043-0.488-0.001-1.145-0.29-1.423c-1.576-1.524-3.242-2.956-5.556-3.255
			c-5.024,8.663-12.188,15.609-17.152,24.305c2.058,0.675,3.001,2.234,3.937,3.879c6.234,10.953,9.071,23.043,11.869,35.152
			c0.398,1.725,0.928,3.421,1.446,5.115C105.212,336.789,105.86,338.835,104.226,341.095z M305.421,332.683
			c-0.503-3.172-0.968-6.041-1.409-8.913c-0.812-5.295-1.813-10.538-3.725-15.573c-0.606-1.598-1.042-3.259-1.553-4.893
			c-0.553-1.766-1.18-3.514-1.623-5.307c-0.303-1.227-0.516-2.522-0.474-3.778c0.103-3.064,0.42-6.12,0.57-9.183
			c0.225-4.565,0.325-9.107-1.15-13.558c-1.073-3.241-1.816-6.588-2.811-9.856c-0.577-1.896-1.631-3.535-3.271-4.834
			c-0.212,0.309-0.416,0.47-0.432,0.648c-0.196,2.153-1.479,3.644-2.968,5.036c-1.043,0.974-1.997,2.042-3.057,2.996
			c-0.513,0.46-1.131,0.927-1.777,1.091c-2.335,0.592-2.981,1.407-2.454,3.68c0.321,1.384,0.825,2.727,1.285,4.076
			c1.394,4.082,2.227,8.281,2.072,12.586c-0.095,2.622-0.483,5.27-1.069,7.83c-1.779,7.777-1.456,15.574-0.561,23.398
			c0.189,1.663,0.641,3.248,1.78,4.508c1.956,2.162,3.976,4.268,5.979,6.386c0.536,0.566,1.301,1.002,1.623,1.662
			c0.473,0.963,1.2,1.11,2.081,1.167c2.421,0.161,4.841,0.336,7.262,0.491C301.646,332.467,303.553,332.572,305.421,332.683z
			 M180.687,331.929c-2.666-1.565-2.872-2.863-0.926-4.815c0.849-0.853,1.797-1.664,2.839-2.249
			c1.608-0.904,3.292-1.713,5.021-2.354c2.72-1.008,5.144-2.479,7.324-4.345c2.112-1.807,3.167-4.007,2.131-6.847
			c-0.292-0.801-0.461-1.648-0.669-2.479c-2.043-8.184-2.627-16.455-1.563-24.84c0.403-3.181,0.692-6.377,0.992-9.568
			c0.229-2.429-0.763-4.004-3.116-4.967c-3.245-1.324-5.212-3.877-5.985-7.314c-0.173-0.764-0.234-1.564-0.492-2.298
			c-0.364-1.033-0.443-2.245-1.61-3.029c-0.375,0.349-0.807,0.616-1.056,1.003c-2.909,4.514-4.944,9.355-4.9,14.815
			c0.021,2.628,0.341,5.263,0.664,7.878c0.47,3.8,0.724,7.498-1.47,10.977c-0.738,1.172-1.082,2.645-1.385,4.027
			c-0.839,3.83-1.692,7.664-2.303,11.535c-1.166,7.395-2.169,14.814-3.238,22.225c-0.148,1.022-0.282,2.048-0.458,3.328
			C173.943,332.38,177.125,332.167,180.687,331.929z M383.982,343.927c-0.363-0.707-0.509-1.33-0.898-1.683
			c-1.182-1.069-0.981-2.194-0.457-3.484c1.959-4.821,3.781-9.705,6.519-14.161c0.597-0.973,1.425-1.802,2.378-2.986
			c-0.535-1.196-1.146-2.787-1.935-4.283c-3.029-5.736-6.133-11.436-9.164-17.172c-0.485-0.917-1.26-1.192-2.108-1.16
			c-2.2,0.082-4.403,0.229-6.591,0.479c-1.029,0.119-1.763,0.774-2.163,1.834c-1.889,5.001-3.859,9.972-5.732,14.979
			c-1.049,2.805-1.964,5.66-2.941,8.491c-0.399,1.154-0.93,2.179-1.893,3.034c-0.889,0.791-1.87,1.746-2.21,2.818
			c-0.453,1.43-1.261,2.52-2.108,3.659c-0.827,1.112-1.67,2.237-2.016,3.655C363.124,339.944,373.387,341.903,383.982,343.927z
			 M72.333,206.588c0-0.189,0.045-0.833-0.012-1.468c-0.079-0.89-0.598-1.533-1.499-1.505c-1.746,0.054-3.49,0.225-5.229,0.407
			c-0.835,0.087-1.629,0.551-1.616,1.414c0.007,0.462,0.647,1.069,1.148,1.342c1.747,0.951,3.542,1.818,5.348,2.654
			c1.312,0.605,2.086,0.078,2.065-1.334C72.534,207.745,72.447,207.394,72.333,206.588z M405.585,347.673
			c-8.515,13.584-18.652,26.05-30.142,37.127c-104.417,0-194.6-0.228-272.582-0.228c-11.053-10.692-20.849-22.674-29.146-35.7
			l0.027-0.027c2.68-0.816,5.396-1.644,8.461-2.578c-1.171-0.78-2.038-1.357-3.155-2.104c0.979-0.855,1.526-1.51,2.219-1.906
			c1.856-1.063,3.78-2.004,5.666-3.016c1.383-0.741,2.76-1.494,4.115-2.285c1.569-0.916,2.926-2.052,3.535-3.848
			c-2.98-5.795-5.911-11.652-8.987-17.432c-2.749-5.165-5.741-10.201-8.465-15.378c-1.723-3.273-3.152-6.702-4.71-10.062
			c-0.06-0.129-0.053-0.302-0.137-0.402c-1.995-2.393-1.367-5.025-0.439-7.504c1.246-3.33,2.602-6.651,4.272-9.785
			c3.153-5.917,6.543-11.711,9.886-17.526c0.663-1.151,0.775-2.092,0.153-3.359c-1.485-3.031-2.231-6.297-2.613-9.661
			c-0.256-2.263-0.707-4.504-1.09-6.752c-0.25-1.466-0.536-2.926-0.83-4.522c-1.896-0.948-4.018-1.821-5.944-3.011
			c-5.098-3.149-10.114-6.431-15.153-9.676c-0.476-0.305-1.018-0.643-1.289-1.106c-0.896-1.532-2.262-1.863-3.904-2.034
			c-1.818-0.189-3.596-0.749-5.615-1.195c-0.308,1.708-0.673,3.292-0.867,4.896c-0.565,4.67-1.09,9.347-1.553,14.028
			c-0.063,0.64,0.191,1.389,0.511,1.972c0.671,1.221,0.508,2.673-0.294,3.734c-0.89,1.177-1.923,1.744-3.5,1.694
			c-1.04-0.032-1.983-0.826-2.344-1.604c-0.396-0.853-0.609-1.856-0.304-3.104c0.305-1.247,1.56-1.887,1.695-3.506
			c0.417-4.973,0.35-11.16,0.66-16.141c0.057-0.898-0.282-1.815-0.318-2.729c-0.058-1.473-0.016-2.952-0.016-4.661
			c-2.566-3.2-2.426-5.394,0.722-8.195c0.101-4.315,0.117-3.678-3.356-4.501c-1.663-0.394-3.29-0.939-4.932-1.42
			c-1.436-0.421-2.847-0.833-4.403-0.665c-0.708,0.077-1.566-0.204-2.183-0.595c-0.757-0.481-1.012-1.317-0.716-2.271
			c0.309-0.994,0.972-1.38,1.943-1.25c1.691,0.227,3.38,0.479,5.063,0.758c2.308,0.383,4.61,0.802,7.182,1.253
			c0.368-2.336,0.721-4.417,1.02-6.506c1.199-8.402,2.385-16.806,3.569-25.209c1.104-7.833,2.192-15.668,3.302-23.5
			c1.27-8.966,2.561-17.93,3.833-26.896c1.132-7.976,2.225-15.958,3.382-23.931c1.586-10.935,3.162-21.873,4.876-32.788
			c0.327-2.083,1.236-4.083,1.95-6.094c0.898-2.53,1.873-5.033,3.242-7.522c0.32,1.689,0.591,3.39,0.967,5.067
			c1.52,6.787,1.237,13.554,0.201,20.392c-0.94,6.204-1.458,12.472-2.148,18.712c-0.87,7.87-1.725,15.741-2.587,23.611
			c-1.268,11.561-2.534,23.123-3.806,34.683c-1.147,10.424-2.306,20.847-3.45,31.271c-0.623,5.673-1.232,11.348-1.829,17.023
			c-0.065,0.627-0.008,1.267-0.008,2.149c3.422,0.217,6.576,2.022,10.174,0.872c0.236-2.639,0.47-5.256-0.323-7.955
			c-1.685-5.73-0.636-10.87,3.927-15.021c1.202-1.094,1.558-2.373,0.847-3.848c-3.011-6.245-0.455-11.479,2.97-16.563
			c3.011-2.409,6.289-4.177,10.278-4.115c0.625,0.009,1.304,0.17,1.856,0.458c5.869,3.049,10.415,7.258,11.855,14.031
			c0.229,1.08,0.209,2.263,0.054,3.362c-0.202,1.428,0.013,2.583,0.911,3.785c1.309,1.752,2.374,3.688,3.589,5.621
			c1.457-0.084,3.082-0.2,4.709-0.27c3.467-0.148,6.609,1.025,9.604,2.577c1.869,0.969,3.176,2.376,2.694,4.814
			c-0.244,1.234-0.292,2.542-0.188,3.795c0.085,1.029,0.318,2.158,0.854,3.013c1.089,1.738,1.826,3.525,1.944,5.581
			c0.172,2.997,1.204,5.737,2.857,8.192c5.138,7.631,7.741,16.156,9.09,25.147c0.148,0.988,0.281,1.984,0.531,2.949
			c1.167,4.494,1.234,9.039,0.6,13.6c-0.266,1.912,0.051,3.592,0.885,5.348c2.691,5.672,5.334,11.371,7.797,17.145
			c3.05,7.148,4.458,14.734,5.2,22.418c0.229,2.367-0.296,4.82-0.617,7.216c-0.065,0.484-0.696,1.103-1.19,1.252
			c-0.364,0.111-1.092-0.319-1.379-0.712c-1.708-2.336-4.095-3.179-6.844-3.324c-0.626-0.033-1.251-0.093-2.182-0.164
			c-0.174,1.004-0.472,1.95-0.478,2.899c-0.018,2.496,0.137,4.993,0.14,7.49c0.006,4.562-0.009,9.126-0.109,13.687
			c-0.022,1.022,0.143,1.723,1.003,2.367c3.011,2.254,4.857,5.361,6.205,8.808c1.114,2.847,2.247,5.687,3.415,8.638
			c6.76-0.666,13.388-1.318,20.166-1.987c-0.191-0.66-0.274-1.067-0.424-1.45c-2.471-6.289-3.743-12.879-4.601-19.528
			c-1.15-8.909-2.146-17.842-2.979-26.785c-0.688-7.386-1.158-14.786-0.751-22.231c0.292-5.34,0.17-10.703,0.21-16.055
			c0.006-0.854,0.018-1.739-0.189-2.556c-0.8-3.155-0.733-6.375-0.765-9.579c-0.159-15.919,0.125-31.829,1.201-47.718
			c0.515-7.614,0.958-15.234,1.512-22.846c0.372-5.118,0.856-10.227,1.35-15.334c0.124-1.282-0.218-2.323-0.833-3.434
			c-3.81-6.89-8.479-13.199-13.055-19.575c-2.428-3.383-3.734-7.128-3.85-11.341c-0.099-3.559-0.485-7.108-0.742-10.662
			c-0.025-0.355-0.077-0.716-0.039-1.067c0.16-1.485,1.259-2.002,2.377-1.02c1.12,0.983,2.089,2.141,3.26,3.364
			c0.782-0.796,1.34-0.789,2.343-0.306c3.18,1.533,3.255,4.597,4.054,7.294c0.645,2.178,1.037,4.43,1.558,6.645
			c0.064,0.272,0.178,0.556,0.344,0.778c2.178,2.91,4.292,5.872,6.58,8.693c2.041,2.518,4.577,4.473,7.545,5.858
			c2.813,1.312,5.171,3.272,7.394,5.411c5.296,5.095,11.381,9.03,17.985,12.202c1.045,0.502,1.983,0.371,3.075,0.014
			c3.992-1.31,7.994-2.622,12.067-3.636c1.801-0.447,3.731-0.985,5.652-0.485c0.89,0.232,1.728,0.662,2.694,1.044
			c1.776-2.18,1.534-5.244-0.693-7.199c-3.428-3.01-6.81-6.071-10.2-9.124c-0.421-0.379-0.825-0.803-1.137-1.274
			c-0.93-1.402-0.792-2.947,0.474-4.056c0.682-0.597,1.539-1.017,2.366-1.417c3.018-1.459,6.06-2.868,9.083-4.317
			c0.577-0.276,1.105-0.651,1.656-0.981c1.91-1.146,3.087-2.74,3.781-4.93c0.944-2.979,2.267-5.843,3.482-8.733
			c1.051-2.498,2.28-4.925,3.245-7.455c1.325-3.468,3.993-5.535,7.16-6.988c2.646-1.215,5.389-2.268,8.476-1.549
			c0.722,0.167,1.624-0.332,2.413-0.608c0.462-0.162,0.84-0.599,1.304-0.707c0.336-0.078,0.829,0.09,1.096,0.325
			c0.146,0.127,0.068,0.701-0.099,0.941c-0.276,0.399-0.707,0.692-1.072,1.03c-3.964,3.667-6.047,8.126-6.153,13.598
			c-0.064,3.374,0.695,6.347,2.813,8.967c0.269,0.333,0.499,0.713,0.821,0.984c2.736,2.287,5.421,4.644,8.271,6.78
			c1.102,0.826,2.546,1.333,3.912,1.635c1.721,0.381,3.195,1.189,4.663,2.046c1.575,0.922,2.016,2.287,1.458,4.033
			c-0.542,1.701-1.711,2.947-2.991,4.102c-2.538,2.291-5.08,4.581-7.657,6.829c-0.743,0.648-0.896,1.375-0.779,2.289
			c0.172,1.34,0.19,2.705,0.429,4.031c0.159,0.876,0.588,1.703,0.999,2.839c0.866-0.707,1.487-1.266,2.16-1.75
			c0.981-0.708,1.965-1.424,3.013-2.025c1.264-0.726,2.594-0.69,3.888,0.003c0.314,0.168,0.647,0.321,0.921,0.543
			c3.038,2.47,6.656,3.521,10.41,4.161c1.087,0.186,2.267,0.099,3.363-0.094c2.313-0.409,4.608-0.933,6.892-1.493
			c0.728-0.179,1.489-0.498,2.068-0.962c3.671-2.942,7.292-5.948,10.937-8.924c1.989-1.625,4.028-3.191,5.972-4.87
			c0.963-0.831,1.907-1.76,2.591-2.818c0.993-1.538,2.071-2.724,4.126-2.434c0.42-1.097,0.782-2.094,1.183-3.077
			c1.32-3.245,2.78-6.414,4.883-9.251c0.758-1.022,1.495-2.046,1.4-3.488c-0.032-0.481,0.616-1.008,1.076-1.698
			c-0.952-3.133-1.956-6.472-2.979-9.803c-1.906-6.206-3.885-12.39-5.707-18.619c-0.699-2.386-2.294-3.876-4.334-4.891
			c-3.405-1.692-5.324-4.385-6.084-8.03c-0.333-1.599-0.101-3.141,0.475-4.62c0.513-1.32,0.225-2.243-0.845-3.188
			c-1.6-1.414-3.063-2.986-4.548-4.526c-4.559-4.731-4.457-13.958-0.71-18.225c1.104-1.257,1.924-2.765,3.006-4.353
			c1.019,0.934,1.979,1.833,2.596,3.041c2.117,4.143,4.098,8.298,3.731,13.181c-0.177,2.36,0.254,2.748,2.429,3.563
			c1.197,0.449,2.457,0.777,3.582,1.364c0.85,0.444,1.7,1.09,2.259,1.858c2.469,3.396,4.009,7.22,4.851,11.327
			c0.368,1.8,0.19,3.564-0.57,5.235c-0.469,1.033-0.516,2.021-0.183,3.107c2.649,8.664,5.27,17.336,7.909,26.003
			c0.078,0.256,0.262,0.479,0.38,0.688c0.221-0.025,0.389,0.006,0.476-0.063c0.782-0.62,1.57-1.475,2.628-0.678
			c1.207,0.91,2.36,1.982,2.109,3.71c-0.205,1.408-0.502,2.815-0.912,4.176c-0.225,0.745-0.192,1.319,0.124,2.02
			c0.558,1.232,0.941,2.541,1.457,3.792c0.738,1.789,0.94,3.596,0.22,5.418c-0.438,1.107-0.069,2.098,0.242,3.12
			c4.063,13.379,8.139,26.754,12.185,40.138c6.399,21.167,12.778,42.34,19.168,63.511c0.223,0.738,0.464,1.472,0.697,2.21
			c2.703-0.936,2.811-1.071,2.78-3.572c-0.018-1.48-0.188-2.842-0.846-4.297c-1.12-2.484-1.129-5.166,0.773-7.472
			c0.566-0.688,0.88-1.369,0.863-2.312c-0.031-1.666,0.475-2.473,2.056-2.782c2.211-0.431,4.109-1.587,6.184-2.275
			c2.653-0.881,5.508-1.079,8.264-1.562c2.21-0.388,3.787,1.517,4.654,3.48c0.514,1.166,1.333,1.926,2.113,2.838
			c2.423,2.83,4.632,5.832,4.217,9.904c-0.036,0.355,0.043,0.783-0.129,1.053c-1.237,1.938-0.846,4.019-0.803,6.136
			c0.023,1.183-0.712,2.421-1.258,3.56c-0.421,0.88-1.077,1.646-1.655,2.502c2.423,2.821,4.772,5.59,7.159,8.326
			c2.044,2.344,3.781,4.838,4.292,7.999c0.034,0.21,0.061,0.442,0.169,0.615c2.544,4.034,4.568,8.416,7.915,11.906
			c0.462,0.481,1.16,0.878,1.811,1.007c1.528,0.307,3.092,0.559,4.646,0.598c3.253,0.083,3.398,0.101,5.275,3.035
			c3.337-1.296,6.556-2.913,9.723-4.662c3.081-1.701,5.862-3.951,9.315-5.422c-0.36,2.292-2.318,5.534-4.041,6.832
			c-3.933,2.963-7.896,5.888-11.82,8.861c-0.607,0.46-1.164,1.04-1.599,1.666c-1.738,2.506-3.049,2.784-5.684,1.26
			c-0.721-0.418-1.596-0.775-2.408-0.792c-5.627-0.115-9.789-3.056-13.599-6.794c-2.695-2.645-5.46-5.218-8.228-7.786
			c-0.553-0.513-1.257-0.862-2.041-1.386c-1.094,3.086-1.6,5.965-0.789,8.971c0.205,0.757,0.453,1.506,0.602,2.275
			c0.246,1.277,0.319,2.568-0.387,3.747c-1.103,1.842-1.117,3.794-0.63,5.797c0.315,1.293,0.468,2.532-0.905,3.624
			c1.424,2.279,2.707,4.587,4.234,6.719c2.619,3.652,5.413,7.179,8.091,10.789c1.188,1.604,2.248,3.301,3.407,4.927
			c1.632,2.29,2.241,4.923,2.441,7.637c0.08,1.088-0.166,2.295-0.592,3.308c-1.741,4.142-3.623,8.225-5.427,12.34
			c-0.762,1.737-1.523,3.481-2.146,5.271c-0.183,0.525-0.005,1.265,0.218,1.819c0.26,0.65,0.739,1.215,1.143,1.803
			c1.342,1.959,2.548,3.986,3.514,6.184L405.585,347.673z"/>
	</g>
</g>
<g id="Capa_2">
	<path fill-rule="evenodd" clip-rule="evenodd" fill="#DE6EFB" d="M43.327,241.536c0,0-2.625-0.58-3.292-2.413
		s-0.375-4.253,0.792-5.753s1-22.5,0.833-23.5s-3.605-2.965-2.919-6.164c0.442-2.062,1.876-3.378,1.98-3.731
		s0.195-1.469-0.333-1.791c-1.804-1.101-6.731-2.374-7.892-2.245c-1.5,0.167-3.341-0.28-4.341-1.447s-1.125-2.389-0.531-3.526
		c0.688-1.317,2.631-1.36,2.631-1.36l15.24,5.099l1.333,9.5l-1.833,30.833l0.167,6.167L43.327,241.536z"/>
	<path fill-rule="evenodd" clip-rule="evenodd" fill="#DE6EFB" d="M68.02,39.183c-0.922,0.295-6.927,8.305-7.775,12.658
		S39.41,191.87,39.41,191.87l5.449,1.174C44.859,193.044,68.942,38.888,68.02,39.183z"/>
	<path fill="#DE6EFB" d="M299.646,35.707c0,0-1.895-1.22-4.873,2.774c-3.298,4.423-3.496,3.028-4.719,7.8
		c-1.176,4.587-0.595,11.608-0.595,11.608l7.695,0.472l0.842-18.156L299.646,35.707z"/>
	<g>
		<path fill-rule="evenodd" clip-rule="evenodd" fill="#DE6EFB" d="M435.491,244.198c0,55.302-22.963,105.246-59.888,140.846
			c-104.417,0-194.6-0.228-272.582-0.228C66.236,349.23,43.371,299.38,43.371,244.198c0-108.12,87.779-195.77,196.06-195.77
			C347.713,48.429,435.491,136.078,435.491,244.198z"/>
		<path fill-rule="evenodd" clip-rule="evenodd" d="M326.669,129.764c-2.712,0.552-6.208,2.985-7.644,5.575
			c-2.306,4.165-4.453,8.419-6.63,12.654c-0.216,0.42-0.271,0.977-0.24,1.459c0.127,1.99,0.216,3.99,0.5,5.961
			c0.59,4.088,1.377,8.149,1.936,12.242c1.177,8.616,2.325,17.236,3.354,25.871c0.539,4.527,0.969,9.08,1.146,13.634
			c0.278,7.126,0.349,14.261,0.416,21.394c0.066,7.133,0.036,14.268,0.01,21.4c-0.005,1.206,0.185,2.049,1.343,2.838
			c1.12,0.762,2.038,2.014,2.686,3.24c2.359,4.477,4.565,9.034,6.843,13.556c0.168,0.333,0.437,0.614,0.824,1.147
			c0.442-0.9,0.865-1.494,1.034-2.153c0.657-2.546,1.431-5.084,1.802-7.677c0.897-6.271,3.462-11.385,9.12-14.686
			c2.399-1.399,4.664-3.027,7.002-4.535c2.515-1.623,5.042-3.225,7.563-4.837c0.576-0.368,1.146-0.746,1.694-1.104
			C348.459,200.261,337.561,165.002,326.669,129.764z M335.144,335.868c0.203-0.207,0.332-0.293,0.394-0.412
			c0.129-0.252,0.231-0.52,0.33-0.787c1.533-4.125,3.57-7.938,6.863-10.957c0.714-0.654,0.727-1.369,0.698-2.296
			c-0.101-3.408-0.577-6.938,0.112-10.207c1.143-5.419,3.088-10.666,4.669-15.994c0.3-1.01,0.841-2.131,0.644-3.069
			c-0.455-2.162,0.073-4.026,1.281-5.662c1.374-1.859,1.275-3.658,0.409-5.605c-0.853-1.917-0.873-3.912-0.225-5.857
			c0.653-1.957,1.531-3.84,2.247-5.777c0.757-2.048,1.438-4.124,2.201-6.33c-1.888-0.183-3.24,0.24-4.382,1.563
			c-2.685,3.115-4.735,6.504-6.021,10.482c-1.311,4.057-2.226,8.491-6.332,11.014c-0.273,0.17-0.404,0.574-0.598,0.872
			c-0.748,1.144-1.877,1.642-3.141,1.382c-2.505-0.514-4.625-1.739-6.028-3.972c-1.119-1.78-0.986-3.819-1.19-5.799
			c-0.074-0.728-0.29-1.587-0.756-2.101c-1.477-1.63-2.519-3.501-3.125-5.555c-1.026-3.479-1.856-7.016-2.764-10.529
			c-0.216-0.838-0.412-1.68-0.616-2.521c-0.146,0.025-0.292,0.051-0.438,0.076c-0.066,0.464-0.172,0.926-0.191,1.394
			c-0.195,4.56-0.344,9.121-0.571,13.68c-0.228,4.558-0.426,9.122-0.833,13.665c-0.331,3.69-1.013,7.346-1.431,11.029
			c-0.794,7.01-1.438,14.038-2.289,21.041c-0.525,4.332-1.499,8.572-3.864,12.355c-0.368,0.59-0.615,1.254-1.066,2.188
			C317.957,334.09,326.504,334.974,335.144,335.868z M104.386,341.339c8.958-1.41,17.605-2.77,26.251-4.139
			c0.417-0.066,0.823-0.215,1.23-0.337c0.049-0.015,0.094-0.09,0.115-0.146c0.023-0.065,0.017-0.142,0.046-0.45
			c-1.711-2.573-3.459-5.35-5.356-8.021c-3.805-5.361-7.29-10.869-10.027-16.895c-2.011-4.428-3.327-8.976-3.823-13.729
			c-0.917-8.794-1.565-17.616-2.334-26.426c-0.043-0.488-0.001-1.145-0.29-1.423c-1.576-1.524-3.242-2.956-5.556-3.255
			c-5.024,8.663-12.188,15.609-17.152,24.305c2.058,0.675,3.001,2.234,3.937,3.879c6.234,10.953,9.071,23.043,11.869,35.152
			c0.398,1.725,0.928,3.421,1.446,5.115C105.373,337.033,106.02,339.079,104.386,341.339z M305.581,332.927
			c-0.503-3.172-0.968-6.041-1.409-8.913c-0.812-5.295-1.813-10.538-3.725-15.573c-0.606-1.598-1.042-3.259-1.553-4.893
			c-0.553-1.766-1.18-3.514-1.623-5.307c-0.303-1.227-0.516-2.522-0.474-3.778c0.103-3.064,0.42-6.12,0.57-9.183
			c0.225-4.565,0.325-9.107-1.15-13.558c-1.073-3.241-1.816-6.588-2.811-9.856c-0.577-1.896-1.631-3.535-3.271-4.834
			c-0.212,0.309-0.416,0.47-0.432,0.648c-0.196,2.153-1.479,3.644-2.968,5.036c-1.043,0.974-1.997,2.042-3.057,2.996
			c-0.513,0.46-1.131,0.927-1.777,1.091c-2.335,0.592-2.981,1.407-2.454,3.68c0.321,1.384,0.825,2.727,1.285,4.076
			c1.394,4.082,2.227,8.281,2.072,12.586c-0.095,2.622-0.483,5.27-1.069,7.83c-1.779,7.777-1.456,15.574-0.561,23.398
			c0.189,1.663,0.641,3.248,1.78,4.508c1.956,2.162,3.976,4.268,5.979,6.386c0.536,0.566,1.301,1.002,1.623,1.662
			c0.473,0.963,1.2,1.11,2.081,1.167c2.421,0.161,4.841,0.336,7.262,0.491C301.807,332.711,303.713,332.816,305.581,332.927z
			 M180.847,332.173c-2.666-1.565-2.872-2.863-0.926-4.815c0.849-0.853,1.797-1.664,2.839-2.249
			c1.608-0.904,3.292-1.713,5.021-2.354c2.72-1.008,5.144-2.479,7.324-4.345c2.112-1.807,3.167-4.007,2.131-6.847
			c-0.292-0.801-0.461-1.648-0.669-2.479c-2.043-8.184-2.627-16.455-1.563-24.84c0.403-3.181,0.692-6.377,0.992-9.568
			c0.229-2.429-0.763-4.004-3.116-4.967c-3.245-1.324-5.212-3.877-5.985-7.314c-0.173-0.764-0.234-1.564-0.492-2.298
			c-0.364-1.033-0.443-2.245-1.61-3.029c-0.375,0.349-0.807,0.616-1.056,1.003c-2.909,4.514-4.944,9.355-4.9,14.815
			c0.021,2.628,0.341,5.263,0.664,7.878c0.47,3.8,0.724,7.498-1.47,10.977c-0.738,1.172-1.082,2.645-1.385,4.027
			c-0.839,3.83-1.692,7.664-2.303,11.535c-1.166,7.395-2.169,14.814-3.238,22.225c-0.148,1.022-0.282,2.048-0.458,3.328
			C174.103,332.624,177.286,332.411,180.847,332.173z M384.143,344.171c-0.363-0.707-0.509-1.33-0.898-1.683
			c-1.182-1.069-0.981-2.194-0.457-3.484c1.959-4.821,3.781-9.705,6.519-14.161c0.597-0.973,1.425-1.802,2.378-2.986
			c-0.535-1.196-1.146-2.787-1.935-4.283c-3.029-5.736-6.133-11.436-9.164-17.172c-0.485-0.917-1.26-1.192-2.108-1.16
			c-2.2,0.082-4.403,0.229-6.591,0.479c-1.029,0.119-1.763,0.774-2.163,1.834c-1.889,5.001-3.859,9.972-5.732,14.979
			c-1.049,2.805-1.964,5.66-2.941,8.491c-0.399,1.154-0.93,2.179-1.893,3.034c-0.889,0.791-1.87,1.746-2.21,2.818
			c-0.453,1.43-1.261,2.52-2.108,3.659c-0.827,1.112-1.67,2.237-2.016,3.655C363.284,340.188,373.547,342.147,384.143,344.171z
			 M72.494,206.833c0-0.189,0.045-0.834-0.012-1.469c-0.079-0.89-0.598-1.533-1.499-1.505c-1.746,0.054-3.49,0.226-5.229,0.407
			c-0.835,0.087-1.629,0.551-1.616,1.414c0.007,0.462,0.647,1.068,1.148,1.342c1.747,0.951,3.542,1.818,5.348,2.654
			c1.312,0.605,2.086,0.077,2.065-1.334C72.694,207.989,72.607,207.638,72.494,206.833z M405.745,347.917
			c-8.515,13.584-18.652,26.05-30.142,37.127c-104.417,0-194.6-0.228-272.582-0.228c-11.053-10.692-20.849-22.674-29.146-35.7
			l0.027-0.027c2.68-0.816,5.396-1.644,8.461-2.578c-1.171-0.78-2.038-1.357-3.155-2.104c0.979-0.855,1.526-1.51,2.219-1.906
			c1.856-1.063,3.78-2.004,5.666-3.016c1.383-0.741,2.76-1.494,4.115-2.285c1.569-0.916,2.926-2.052,3.535-3.848
			c-2.98-5.795-5.911-11.652-8.987-17.432c-2.749-5.165-5.741-10.201-8.465-15.378c-1.723-3.273-3.152-6.702-4.71-10.062
			c-0.06-0.129-0.053-0.302-0.137-0.402c-1.995-2.393-1.367-5.025-0.439-7.504c1.246-3.33,2.602-6.651,4.272-9.785
			c3.153-5.917,6.543-11.711,9.886-17.526c0.663-1.151,0.775-2.092,0.153-3.359c-1.485-3.031-2.231-6.297-2.613-9.661
			c-0.256-2.263-0.707-4.504-1.09-6.752c-0.25-1.466-0.536-2.926-0.83-4.522c-1.896-0.948-4.018-1.821-5.944-3.011
			c-5.098-3.149-10.114-6.431-15.153-9.676c-0.476-0.305-1.018-0.643-1.289-1.106c-0.896-1.532-2.262-1.863-3.904-2.034
			c-1.818-0.189-3.596-0.749-5.615-1.195c-0.308,1.708-0.673,3.292-0.867,4.896c-0.565,4.67-1.09,9.347-1.553,14.028
			c-0.063,0.64,0.191,1.389,0.511,1.972c0.671,1.221,0.508,2.673-0.294,3.734c-0.89,1.177-1.923,1.744-3.5,1.694
			c-1.04-0.032-1.983-0.826-2.344-1.604c-0.396-0.853-0.609-1.856-0.304-3.104c0.305-1.247,1.56-1.887,1.695-3.506
			c0.417-4.973,0.35-11.16,0.66-16.141c0.057-0.898-0.282-1.815-0.318-2.729c-0.058-1.473-0.016-2.952-0.016-4.661
			c-2.566-3.2-2.426-5.394,0.722-8.194c0.101-4.316,0.117-3.679-3.356-4.502c-1.663-0.393-3.29-0.938-4.932-1.42
			c-1.436-0.422-2.847-0.832-4.403-0.664c-0.708,0.076-1.566-0.204-2.183-0.596c-0.757-0.48-1.012-1.317-0.716-2.271
			c0.309-0.994,0.972-1.38,1.943-1.249c1.691,0.227,3.38,0.479,5.063,0.758c2.308,0.383,4.61,0.803,7.182,1.253
			c0.368-2.336,0.721-4.417,1.02-6.506c1.199-8.401,2.385-16.806,3.569-25.209c1.104-7.833,2.192-15.668,3.302-23.501
			c1.27-8.966,2.561-17.93,3.833-26.896c1.132-7.976,2.225-15.957,3.382-23.93c1.586-10.936,3.162-21.873,4.876-32.789
			c0.327-2.082,1.236-4.082,1.95-6.094c0.898-2.53,1.873-5.033,3.242-7.522c0.32,1.689,0.591,3.39,0.967,5.067
			c1.52,6.787,1.237,13.554,0.201,20.392c-0.94,6.204-1.458,12.472-2.148,18.712c-0.87,7.87-1.725,15.741-2.587,23.611
			c-1.268,11.561-2.534,23.123-3.806,34.684c-1.147,10.424-2.306,20.846-3.45,31.271c-0.623,5.673-1.232,11.348-1.829,17.022
			c-0.065,0.628-0.008,1.268-0.008,2.149c3.422,0.217,6.576,2.022,10.174,0.872c0.236-2.639,0.47-5.256-0.323-7.955
			c-1.685-5.73-0.636-10.87,3.927-15.021c1.202-1.094,1.558-2.373,0.847-3.848c-3.011-6.244-0.455-11.479,2.97-16.563
			c3.011-2.409,6.289-4.178,10.278-4.115c0.625,0.01,1.304,0.17,1.856,0.457c5.869,3.049,10.415,7.258,11.855,14.031
			c0.229,1.08,0.209,2.264,0.054,3.363c-0.202,1.428,0.013,2.583,0.911,3.784c1.309,1.753,2.374,3.688,3.589,5.621
			c1.457-0.085,3.082-0.2,4.709-0.27c3.467-0.147,6.609,1.024,9.604,2.577c1.869,0.969,3.176,2.377,2.694,4.814
			c-0.244,1.233-0.292,2.541-0.188,3.795c0.085,1.029,0.318,2.158,0.854,3.014c1.089,1.737,1.826,3.524,1.944,5.58
			c0.172,2.997,1.204,5.737,2.857,8.192c5.138,7.631,7.741,16.156,9.09,25.147c0.148,0.988,0.281,1.984,0.531,2.949
			c1.167,4.494,1.234,9.039,0.6,13.6c-0.266,1.912,0.051,3.592,0.885,5.348c2.691,5.672,5.334,11.371,7.797,17.145
			c3.05,7.148,4.458,14.734,5.2,22.418c0.229,2.367-0.296,4.82-0.617,7.216c-0.065,0.484-0.696,1.103-1.19,1.252
			c-0.364,0.111-1.092-0.319-1.379-0.712c-1.708-2.336-4.095-3.179-6.844-3.324c-0.626-0.033-1.251-0.093-2.182-0.164
			c-0.174,1.004-0.472,1.95-0.478,2.899c-0.018,2.496,0.137,4.993,0.14,7.49c0.006,4.562-0.009,9.126-0.109,13.687
			c-0.022,1.022,0.143,1.723,1.003,2.367c3.011,2.254,4.857,5.361,6.205,8.808c1.114,2.847,2.247,5.687,3.415,8.638
			c6.76-0.666,13.388-1.318,20.166-1.987c-0.191-0.66-0.274-1.067-0.424-1.45c-2.471-6.289-3.743-12.879-4.601-19.528
			c-1.15-8.909-2.146-17.842-2.979-26.785c-0.688-7.386-1.158-14.786-0.751-22.231c0.292-5.34,0.17-10.703,0.21-16.055
			c0.006-0.854,0.018-1.739-0.189-2.556c-0.8-3.155-0.733-6.375-0.765-9.579c-0.159-15.919,0.125-31.828,1.201-47.719
			c0.515-7.613,0.958-15.234,1.512-22.846c0.372-5.117,0.856-10.227,1.35-15.334c0.124-1.282-0.218-2.323-0.833-3.434
			c-3.81-6.891-8.479-13.199-13.055-19.575c-2.428-3.383-3.734-7.128-3.85-11.341c-0.099-3.559-0.485-7.109-0.742-10.662
			c-0.025-0.355-0.077-0.717-0.039-1.067c0.16-1.485,1.259-2.003,2.377-1.021c1.12,0.984,2.089,2.141,3.26,3.364
			c0.782-0.796,1.34-0.789,2.343-0.306c3.18,1.533,3.255,4.597,4.054,7.295c0.645,2.178,1.037,4.43,1.558,6.645
			c0.064,0.271,0.178,0.556,0.344,0.777c2.178,2.91,4.292,5.872,6.58,8.693c2.041,2.518,4.577,4.473,7.545,5.858
			c2.813,1.312,5.171,3.272,7.394,5.411c5.296,5.095,11.381,9.029,17.985,12.201c1.045,0.502,1.983,0.371,3.075,0.014
			c3.992-1.31,7.994-2.622,12.067-3.636c1.801-0.446,3.73-0.985,5.651-0.485c0.89,0.232,1.728,0.662,2.694,1.044
			c1.775-2.181,1.533-5.243-0.693-7.198c-3.428-3.01-6.811-6.071-10.2-9.125c-0.421-0.379-0.825-0.803-1.137-1.273
			c-0.93-1.402-0.792-2.947,0.474-4.056c0.682-0.597,1.539-1.017,2.366-1.417c3.018-1.459,6.061-2.867,9.083-4.316
			c0.577-0.276,1.105-0.65,1.656-0.98c1.91-1.146,3.087-2.74,3.781-4.93c0.944-2.979,2.267-5.844,3.482-8.733
			c1.051-2.498,2.28-4.925,3.245-7.454c1.325-3.469,3.993-5.535,7.16-6.988c2.646-1.215,5.389-2.268,8.476-1.549
			c0.722,0.167,1.624-0.332,2.413-0.608c0.462-0.161,0.84-0.599,1.304-0.707c0.336-0.078,0.829,0.09,1.096,0.325
			c0.146,0.127,0.068,0.701-0.099,0.941c-0.276,0.398-0.707,0.691-1.072,1.03c-3.964,3.667-6.047,8.126-6.153,13.599
			c-0.064,3.373,0.695,6.347,2.813,8.967c0.269,0.332,0.499,0.713,0.821,0.983c2.736,2.287,5.421,4.644,8.271,6.78
			c1.102,0.826,2.546,1.334,3.912,1.635c1.721,0.381,3.195,1.189,4.663,2.047c1.575,0.922,2.016,2.287,1.458,4.033
			c-0.542,1.701-1.711,2.947-2.991,4.102c-2.538,2.291-5.08,4.58-7.657,6.828c-0.743,0.648-0.896,1.376-0.779,2.289
			c0.172,1.341,0.19,2.705,0.429,4.031c0.159,0.877,0.588,1.703,0.999,2.839c0.866-0.707,1.487-1.266,2.16-1.75
			c0.981-0.708,1.965-1.425,3.013-2.025c1.264-0.726,2.594-0.69,3.888,0.003c0.314,0.168,0.647,0.321,0.921,0.543
			c3.038,2.471,6.656,3.521,10.41,4.162c1.087,0.186,2.267,0.099,3.363-0.095c2.313-0.409,4.608-0.933,6.892-1.493
			c0.728-0.179,1.489-0.498,2.068-0.962c3.671-2.942,7.292-5.948,10.937-8.925c1.989-1.625,4.028-3.19,5.972-4.869
			c0.963-0.831,1.907-1.76,2.591-2.818c0.993-1.537,2.071-2.723,4.126-2.434c0.42-1.097,0.782-2.094,1.183-3.077
			c1.32-3.245,2.78-6.413,4.883-9.251c0.758-1.022,1.495-2.047,1.4-3.488c-0.032-0.482,0.616-1.008,1.076-1.699
			c-0.952-3.133-1.956-6.471-2.979-9.803c-1.906-6.205-3.885-12.39-5.707-18.619c-0.699-2.386-2.294-3.875-4.334-4.891
			c-3.405-1.691-5.324-4.385-6.084-8.029c-0.333-1.6-0.101-3.142,0.475-4.621c0.513-1.319,0.225-2.242-0.845-3.188
			c-1.6-1.414-3.063-2.986-4.548-4.526c-4.559-4.731-4.457-13.958-0.71-18.226c1.104-1.257,1.924-2.764,3.006-4.353
			c1.019,0.935,1.979,1.833,2.596,3.04c2.117,4.144,4.098,8.299,3.731,13.182c-0.177,2.359,0.254,2.748,2.429,3.563
			c1.197,0.449,2.457,0.776,3.582,1.364c0.85,0.443,1.7,1.09,2.259,1.857c2.469,3.396,4.009,7.221,4.851,11.326
			c0.368,1.801,0.19,3.564-0.57,5.235c-0.469,1.033-0.516,2.021-0.183,3.107c2.649,8.663,5.27,17.337,7.909,26.003
			c0.078,0.256,0.262,0.48,0.38,0.688c0.221-0.025,0.389,0.006,0.476-0.063c0.782-0.62,1.57-1.475,2.628-0.678
			c1.207,0.909,2.36,1.982,2.109,3.71c-0.205,1.408-0.502,2.815-0.912,4.176c-0.225,0.745-0.192,1.319,0.124,2.02
			c0.558,1.231,0.941,2.54,1.457,3.792c0.738,1.789,0.94,3.596,0.22,5.418c-0.438,1.107-0.069,2.098,0.242,3.119
			c4.063,13.38,8.139,26.755,12.185,40.139c6.399,21.167,12.778,42.34,19.168,63.511c0.223,0.738,0.464,1.472,0.697,2.21
			c2.703-0.936,2.811-1.071,2.78-3.572c-0.018-1.48-0.188-2.842-0.846-4.297c-1.12-2.484-1.129-5.166,0.773-7.472
			c0.566-0.688,0.88-1.369,0.863-2.312c-0.031-1.666,0.475-2.473,2.056-2.782c2.211-0.431,4.109-1.587,6.184-2.274
			c2.653-0.881,5.508-1.079,8.264-1.563c2.21-0.387,3.787,1.518,4.654,3.48c0.514,1.166,1.333,1.926,2.113,2.838
			c2.423,2.83,4.632,5.832,4.217,9.904c-0.036,0.355,0.043,0.783-0.129,1.053c-1.237,1.938-0.846,4.019-0.803,6.136
			c0.023,1.183-0.712,2.421-1.258,3.56c-0.421,0.88-1.077,1.646-1.655,2.502c2.423,2.821,4.772,5.59,7.159,8.326
			c2.044,2.344,3.781,4.838,4.292,7.999c0.034,0.21,0.061,0.442,0.169,0.615c2.544,4.034,4.568,8.416,7.915,11.906
			c0.462,0.481,1.16,0.878,1.811,1.007c1.528,0.307,3.092,0.559,4.646,0.598c3.253,0.083,3.398,0.101,5.275,3.035
			c3.337-1.296,6.556-2.913,9.723-4.662c3.081-1.701,5.862-3.951,9.315-5.422c-0.36,2.292-2.318,5.534-4.041,6.832
			c-3.933,2.963-7.896,5.888-11.82,8.861c-0.607,0.46-1.164,1.04-1.599,1.666c-1.738,2.506-3.049,2.784-5.684,1.26
			c-0.721-0.418-1.596-0.775-2.408-0.792c-5.627-0.115-9.789-3.056-13.599-6.794c-2.695-2.645-5.46-5.218-8.228-7.786
			c-0.553-0.513-1.257-0.862-2.041-1.386c-1.094,3.086-1.6,5.965-0.789,8.971c0.205,0.757,0.453,1.506,0.602,2.275
			c0.246,1.277,0.319,2.568-0.387,3.747c-1.103,1.842-1.117,3.794-0.63,5.797c0.315,1.293,0.468,2.532-0.905,3.624
			c1.424,2.279,2.707,4.587,4.234,6.719c2.619,3.652,5.413,7.179,8.091,10.789c1.188,1.604,2.248,3.301,3.407,4.927
			c1.632,2.29,2.241,4.923,2.441,7.637c0.08,1.088-0.166,2.295-0.592,3.308c-1.741,4.142-3.623,8.225-5.427,12.34
			c-0.762,1.737-1.523,3.481-2.146,5.271c-0.183,0.525-0.005,1.265,0.218,1.819c0.26,0.65,0.739,1.215,1.143,1.803
			c1.342,1.959,2.548,3.986,3.514,6.184L405.745,347.917z"/>
	</g>
</g>
</svg>
